# xmcd CD database file
#
# Track frame offsets:
#	182
#	17515
#	66772
#	112630
#	136420
#
# Disc length: 2553 seconds
#
# Revision: 2
# Processed by: cddbd v1.5.1PL0 Copyright (c) Steve Scherf et al.
# Submitted via: CDex 1.51
#
DISCID=3409f705
DTITLE=Cerrone - Supernature - The Danny Tenaglia remixes
DYEAR=1996
DGENRE=House
TTITLE0=Supernature (single edit)
TTITLE1=Supernature (D.T.'s Legendary Club mix)
TTITLE2=Supernature (D.T.'s Twilo Club mix)
TTITLE3=Supernature (Kevin Saunderson mix)
TTITLE4=Supernature (Original mix)
EXTD=PURE 00364-2252-2\n\nProduced by CERRONE\nPublished by C Side Music\n\nAll keyboards and percussion by Danny Tenaglia YEAR: 1996
EXTT0=
EXTT1=
EXTT2=
EXTT3=
EXTT4=
PLAYORDER=
